<svg width="86" height="38" viewBox="0 0 86 38" fill="none" xmlns="http://www.w3.org/2000/svg">
<rect x="0.5" y="0.5" width="85" height="37" rx="18.5" fill="#171717"/>
<rect x="0.5" y="0.5" width="85" height="37" rx="18.5" stroke="url(#paint0_linear_2046_13909)"/>
<path d="M27.0002 10.75V27.25C23.7918 27.25 21.4078 23.0513 21.4078 23.0513H18.7502C18.2439 23.0513 17.8335 22.6409 17.8335 22.1346V15.7966C17.8335 15.2903 18.2439 14.88 18.7502 14.88H21.4078C21.4078 14.88 23.7918 10.75 27.0002 10.75Z" fill="#8B5CF6" stroke="#8B5CF6" stroke-linejoin="round"/>
<path d="M30.6665 14.875C30.9521 15.1301 31.2111 15.4157 31.4384 15.727C32.1051 16.6398 32.4998 17.7727 32.4998 19C32.4998 20.2166 32.1119 21.3406 31.4557 22.2493C31.2242 22.5697 30.9594 22.8634 30.6665 23.125" stroke="#8B5CF6" stroke-linecap="round" stroke-linejoin="round"/>
<path d="M31.6914 26.8773C34.3716 25.2775 36.1666 22.3486 36.1666 19.0005C36.1666 15.7044 34.4269 12.8146 31.8157 11.1992" stroke="#8B5CF6" stroke-linecap="round"/>
<path d="M51.88 24.084C48.912 24.084 46.728 21.956 46.728 19.1C46.728 16.244 48.912 14.116 51.88 14.116C54.82 14.116 57.018 16.23 57.018 19.1C57.018 21.97 54.82 24.084 51.88 24.084ZM51.88 23.16C54.232 23.16 55.982 21.438 55.982 19.1C55.982 16.762 54.232 15.04 51.88 15.04C49.514 15.04 47.75 16.762 47.75 19.1C47.75 21.438 49.514 23.16 51.88 23.16ZM66.5081 14.2H67.5301V24H66.6761L60.3761 16.048V24H59.3401V14.2H60.1941L66.5081 22.152V14.2Z" fill="white"/>
<defs>
<linearGradient id="paint0_linear_2046_13909" x1="43" y1="0" x2="43" y2="38" gradientUnits="userSpaceOnUse">
<stop stop-color="white"/>
<stop offset="1" stop-color="white" stop-opacity="0.2"/>
</linearGradient>
</defs>
</svg>
