<svg width="24" height="47" viewBox="0 0 24 47" fill="none" xmlns="http://www.w3.org/2000/svg">
<rect width="24" height="47" rx="10" fill="#323232"/>
<path d="M14.8535 14V11C14.8535 9.15905 13.5104 8 11.8535 8C10.9289 8 10.1019 8.36098 9.55162 9C9.30907 9.2817 9.12022 9.6174 9.00047 10M7 14H17C17.5523 14 18 14.4477 18 15V22C18 22.5523 17.5523 23 17 23H7C6.44772 23 6 22.5523 6 22V15C6 14.4477 6.44772 14 7 14Z" stroke="#9463FE" stroke-linecap="round" stroke-linejoin="round"/>
<path d="M6 39L12 33L18 39" stroke="white" stroke-linecap="round"/>
</svg>
