<svg width="16" height="20" viewBox="0 0 16 20" fill="none" xmlns="http://www.w3.org/2000/svg">
<path d="M1.5 8.64998C1.5 8.37384 1.27614 8.14998 1 8.14998C0.723858 8.14998 0.5 8.37384 0.5 8.64998H1.5ZM15.5 8.64998C15.5 8.37384 15.2761 8.14998 15 8.14998C14.7239 8.14998 14.5 8.37384 14.5 8.64998H15.5ZM4 18.5C3.72386 18.5 3.5 18.7239 3.5 19C3.5 19.2761 3.72386 19.5 4 19.5V18.5ZM12 19.5C12.2761 19.5 12.5 19.2761 12.5 19C12.5 18.7239 12.2761 18.5 12 18.5V19.5ZM8 1.5C9.98385 1.5 11.5 2.93618 11.5 4.60005H12.5C12.5 2.28741 10.4344 0.5 8 0.5V1.5ZM11.5 4.60005V10.0001H12.5V4.60005H11.5ZM11.5 10.0001C11.5 11.664 9.98385 13.1002 8 13.1002V14.1002C10.4344 14.1002 12.5 12.3128 12.5 10.0001H11.5ZM8 13.1002C6.01615 13.1002 4.5 11.664 4.5 10.0001H3.5C3.5 12.3128 5.56557 14.1002 8 14.1002V13.1002ZM4.5 10.0001V4.60005H3.5V10.0001H4.5ZM4.5 4.60005C4.5 2.93618 6.01615 1.5 8 1.5V0.5C5.56557 0.5 3.5 2.28741 3.5 4.60005H4.5ZM0.5 8.64998V10H1.5V8.64998H0.5ZM0.5 10C0.5 13.8038 3.90871 16.8001 8 16.8001V15.8001C4.35929 15.8001 1.5 13.1551 1.5 10H0.5ZM8 16.8001C12.0913 16.8001 15.5 13.8038 15.5 10H14.5C14.5 13.1551 11.6407 15.8001 8 15.8001V16.8001ZM15.5 10V8.64998H14.5V10H15.5ZM7.5 16.3001L7.49997 19L8.49997 19L8.5 16.3001L7.5 16.3001ZM4 19.5H12V18.5H4V19.5Z" fill="white"/>
</svg>
