<svg width="174" height="24" viewBox="0 0 174 24" fill="none" xmlns="http://www.w3.org/2000/svg">
<rect width="174" height="24" rx="12" fill="#4B3D6B"/>
<path d="M12 23.0769C18.1176 23.0769 23.0769 18.1176 23.0769 12C23.0769 5.8824 18.1176 0.923096 12 0.923096C5.8824 0.923096 0.923096 5.8824 0.923096 12C0.923096 18.1176 5.8824 23.0769 12 23.0769Z" stroke="url(#paint0_linear_3046_5568)" stroke-width="0.923077"/>
<path d="M9.9403 17H9V7H9.9403V17ZM15 17H14.0597V7H15V17Z" fill="white"/>
<path d="M36 15.4155C36 15.0382 36.3041 14.7324 36.6793 14.7324C37.0544 14.7324 37.3585 15.0382 37.3585 15.4155C37.3585 15.7927 37.0544 16.0985 36.6793 16.0985C36.3041 16.0985 36 15.7927 36 15.4155Z" fill="#8B5CF6"/>
<path d="M38.7171 15.4155C38.7171 15.0382 39.0212 14.7324 39.3964 14.7324C39.7715 14.7324 40.0756 15.0382 40.0756 15.4155C40.0756 15.7927 39.7715 16.0985 39.3964 16.0985C39.0212 16.0985 38.7171 15.7927 38.7171 15.4155Z" fill="#8B5CF6"/>
<path d="M41.4342 15.4155C41.4342 15.0382 41.7383 14.7324 42.1135 14.7324C42.4886 14.7324 42.7927 15.0382 42.7927 15.4155C42.7927 15.7927 42.4886 16.0985 42.1135 16.0985C41.7383 16.0985 41.4342 15.7927 41.4342 15.4155Z" fill="#8B5CF6"/>
<path d="M44.1513 11.3169C44.1513 10.9396 44.4554 10.6338 44.8305 10.6338C45.2057 10.6338 45.5098 10.9396 45.5098 11.3169V15.4155C45.5098 15.7927 45.2057 16.0986 44.8305 16.0986C44.4554 16.0986 44.1513 15.7927 44.1513 15.4155V11.3169Z" fill="#8B5CF6"/>
<path d="M46.8684 11.3169C46.8684 10.9396 47.1725 10.6338 47.5476 10.6338C47.9228 10.6338 48.2269 10.9396 48.2269 11.3169V15.4155C48.2269 15.7927 47.9228 16.0986 47.5476 16.0986C47.1725 16.0986 46.8684 15.7927 46.8684 15.4155V11.3169Z" fill="#8B5CF6"/>
<path d="M49.5855 11.3169C49.5855 10.9396 49.8896 10.6338 50.2647 10.6338C50.6399 10.6338 50.944 10.9396 50.944 11.3169V15.4155C50.944 15.7927 50.6399 16.0986 50.2647 16.0986C49.8896 16.0986 49.5855 15.7927 49.5855 15.4155V11.3169Z" fill="#8B5CF6"/>
<path d="M52.3025 11.3169C52.3025 10.9396 52.6067 10.6338 52.9818 10.6338C53.357 10.6338 53.6611 10.9396 53.6611 11.3169V15.4155C53.6611 15.7927 53.357 16.0986 52.9818 16.0986C52.6067 16.0986 52.3025 15.7927 52.3025 15.4155V11.3169Z" fill="#8B5CF6"/>
<path d="M55.0196 12.6831C55.0196 12.3058 55.3238 12 55.6989 12C56.0741 12 56.3782 12.3058 56.3782 12.6831V15.4155C56.3782 15.7927 56.0741 16.0986 55.6989 16.0986C55.3238 16.0986 55.0196 15.7927 55.0196 15.4155V12.6831Z" fill="#8B5CF6"/>
<path d="M57.7367 12.6831C57.7367 12.3058 58.0408 12 58.416 12C58.7912 12 59.0953 12.3058 59.0953 12.6831V15.4155C59.0953 15.7927 58.7912 16.0986 58.416 16.0986C58.0408 16.0986 57.7367 15.7927 57.7367 15.4155V12.6831Z" fill="#8B5CF6"/>
<path d="M60.4538 8.72108C60.4538 8.26837 60.8188 7.90137 61.2689 7.90137C61.7191 7.90137 62.0841 8.26837 62.0841 8.72109V15.2788C62.0841 15.7316 61.7191 16.0985 61.2689 16.0985C60.8188 16.0985 60.4538 15.7315 60.4538 15.2788V8.72108Z" fill="#8B5CF6"/>
<path d="M63.4426 8.72108C63.4426 8.26837 63.8075 7.90137 64.2577 7.90137C64.7079 7.90137 65.0728 8.26837 65.0728 8.72109V15.2788C65.0728 15.7316 64.7079 16.0985 64.2577 16.0985C63.8075 16.0985 63.4426 15.7315 63.4426 15.2788V8.72108Z" fill="#8B5CF6"/>
<path d="M66.4313 11.1802C66.4313 10.8784 66.6746 10.6338 66.9747 10.6338C67.2748 10.6338 67.5181 10.8784 67.5181 11.1802V15.5521C67.5181 15.8539 67.2748 16.0986 66.9747 16.0986C66.6746 16.0986 66.4313 15.8539 66.4313 15.5521V11.1802Z" fill="#8B5CF6"/>
<path d="M68.8767 11.1802C68.8767 10.8784 69.12 10.6338 69.4202 10.6338C69.7203 10.6338 69.9636 10.8784 69.9636 11.1802V15.5521C69.9636 15.8539 69.7203 16.0986 69.4202 16.0986C69.12 16.0986 68.8767 15.8539 68.8767 15.5521V11.1802Z" fill="#8B5CF6"/>
<path d="M71.3222 13.8216C71.3222 13.57 71.5249 13.3662 71.775 13.3662C72.0251 13.3662 72.2279 13.57 72.2279 13.8216V15.6432C72.2279 15.8947 72.0251 16.0985 71.775 16.0985C71.5249 16.0985 71.3222 15.8947 71.3222 15.6432V13.8216Z" fill="#8B5CF6"/>
<path d="M73.5864 13.8216C73.5864 13.57 73.7891 13.3662 74.0392 13.3662C74.2893 13.3662 74.4921 13.57 74.4921 13.8216V15.6432C74.4921 15.8947 74.2893 16.0985 74.0392 16.0985C73.7891 16.0985 73.5864 15.8947 73.5864 15.6432V13.8216Z" fill="#8B5CF6"/>
<path d="M75.8506 11.3169C75.8506 10.9396 76.1547 10.6338 76.5298 10.6338C76.905 10.6338 77.2091 10.9396 77.2091 11.3169V15.4155C77.2091 15.7927 76.905 16.0986 76.5298 16.0986C76.1547 16.0986 75.8506 15.7927 75.8506 15.4155V11.3169Z" fill="#8B5CF6"/>
<path d="M78.5676 11.3169C78.5676 10.9396 78.8718 10.6338 79.2469 10.6338C79.6221 10.6338 79.9262 10.9396 79.9262 11.3169V15.4155C79.9262 15.7927 79.6221 16.0986 79.2469 16.0986C78.8718 16.0986 78.5676 15.7927 78.5676 15.4155V11.3169Z" fill="#8B5CF6"/>
<path d="M81.2847 11.3169C81.2847 10.9396 81.5889 10.6338 81.964 10.6338C82.3392 10.6338 82.6433 10.9396 82.6433 11.3169V15.4155C82.6433 15.7927 82.3392 16.0986 81.964 16.0986C81.5889 16.0986 81.2847 15.7927 81.2847 15.4155V11.3169Z" fill="#8B5CF6"/>
<path d="M84.0018 11.3169C84.0018 10.9396 84.3059 10.6338 84.6811 10.6338C85.0563 10.6338 85.3604 10.9396 85.3604 11.3169V15.4155C85.3604 15.7927 85.0563 16.0986 84.6811 16.0986C84.3059 16.0986 84.0018 15.7927 84.0018 15.4155V11.3169Z" fill="#8B5CF6"/>
<path d="M86.7189 14.0493C86.7189 13.672 87.023 13.3662 87.3982 13.3662C87.7733 13.3662 88.0775 13.672 88.0775 14.0493V15.4155C88.0775 15.7927 87.7733 16.0985 87.3982 16.0985C87.023 16.0985 86.7189 15.7927 86.7189 15.4155V14.0493Z" fill="#9CA3AF"/>
<path d="M89.436 14.0493C89.436 13.672 89.7401 13.3662 90.1153 13.3662C90.4904 13.3662 90.7946 13.672 90.7946 14.0493V15.4155C90.7946 15.7927 90.4904 16.0985 90.1153 16.0985C89.7401 16.0985 89.436 15.7927 89.436 15.4155V14.0493Z" fill="#9CA3AF"/>
<path d="M92.1531 15.4155C92.1531 15.0382 92.4572 14.7324 92.8324 14.7324C93.2075 14.7324 93.5116 15.0382 93.5116 15.4155C93.5116 15.7927 93.2075 16.0985 92.8324 16.0985C92.4572 16.0985 92.1531 15.7927 92.1531 15.4155Z" fill="#9CA3AF"/>
<path d="M94.8702 15.4155C94.8702 15.0382 95.1743 14.7324 95.5495 14.7324C95.9246 14.7324 96.2287 15.0382 96.2287 15.4155C96.2287 15.7927 95.9246 16.0985 95.5495 16.0985C95.1743 16.0985 94.8702 15.7927 94.8702 15.4155Z" fill="#9CA3AF"/>
<path d="M97.5873 14.0493C97.5873 13.672 97.8914 13.3662 98.2666 13.3662C98.6417 13.3662 98.9458 13.672 98.9458 14.0493V15.4155C98.9458 15.7927 98.6417 16.0985 98.2666 16.0985C97.8914 16.0985 97.5873 15.7927 97.5873 15.4155V14.0493Z" fill="#9CA3AF"/>
<path d="M100.304 14.0493C100.304 13.672 100.608 13.3662 100.984 13.3662C101.359 13.3662 101.663 13.672 101.663 14.0493V15.4155C101.663 15.7927 101.359 16.0985 100.984 16.0985C100.608 16.0985 100.304 15.7927 100.304 15.4155V14.0493Z" fill="#9CA3AF"/>
<path d="M103.021 14.0493C103.021 13.672 103.326 13.3662 103.701 13.3662C104.076 13.3662 104.38 13.672 104.38 14.0493V15.4155C104.38 15.7927 104.076 16.0985 103.701 16.0985C103.326 16.0985 103.021 15.7927 103.021 15.4155V14.0493Z" fill="#9CA3AF"/>
<path d="M105.739 14.0493C105.739 13.672 106.043 13.3662 106.418 13.3662C106.793 13.3662 107.097 13.672 107.097 14.0493V15.4155C107.097 15.7927 106.793 16.0985 106.418 16.0985C106.043 16.0985 105.739 15.7927 105.739 15.4155V14.0493Z" fill="#9CA3AF"/>
<path d="M108.456 11.5446C108.456 11.0415 108.861 10.6338 109.361 10.6338C109.862 10.6338 110.267 11.0415 110.267 11.5446V15.1878C110.267 15.6908 109.862 16.0986 109.361 16.0986C108.861 16.0986 108.456 15.6908 108.456 15.1878V11.5446Z" fill="#9CA3AF"/>
<path d="M111.626 11.5446C111.626 11.0415 112.031 10.6338 112.531 10.6338C113.032 10.6338 113.437 11.0415 113.437 11.5446V15.1878C113.437 15.6908 113.032 16.0986 112.531 16.0986C112.031 16.0986 111.626 15.6908 111.626 15.1878V11.5446Z" fill="#9CA3AF"/>
<path d="M114.796 8.72108C114.796 8.26837 115.161 7.90137 115.611 7.90137C116.061 7.90137 116.426 8.26837 116.426 8.72109V15.2788C116.426 15.7316 116.061 16.0985 115.611 16.0985C115.161 16.0985 114.796 15.7315 114.796 15.2788V8.72108Z" fill="#9CA3AF"/>
<path d="M117.784 8.72108C117.784 8.26837 118.149 7.90137 118.599 7.90137C119.05 7.90137 119.415 8.26837 119.415 8.72109V15.2788C119.415 15.7316 119.05 16.0985 118.599 16.0985C118.149 16.0985 117.784 15.7315 117.784 15.2788V8.72108Z" fill="#9CA3AF"/>
<path d="M120.773 15.4155C120.773 15.0382 121.077 14.7324 121.452 14.7324C121.828 14.7324 122.132 15.0382 122.132 15.4155C122.132 15.7927 121.828 16.0985 121.452 16.0985C121.077 16.0985 120.773 15.7927 120.773 15.4155Z" fill="#9CA3AF"/>
<path d="M123.49 15.4155C123.49 15.0382 123.794 14.7324 124.169 14.7324C124.545 14.7324 124.849 15.0382 124.849 15.4155C124.849 15.7927 124.545 16.0985 124.169 16.0985C123.794 16.0985 123.49 15.7927 123.49 15.4155Z" fill="#9CA3AF"/>
<path d="M126.207 15.4155C126.207 15.0382 126.511 14.7324 126.887 14.7324C127.262 14.7324 127.566 15.0382 127.566 15.4155C127.566 15.7927 127.262 16.0985 126.887 16.0985C126.511 16.0985 126.207 15.7927 126.207 15.4155Z" fill="#9CA3AF"/>
<path d="M128.924 15.4155C128.924 15.0382 129.228 14.7324 129.604 14.7324C129.979 14.7324 130.283 15.0382 130.283 15.4155C130.283 15.7927 129.979 16.0985 129.604 16.0985C129.228 16.0985 128.924 15.7927 128.924 15.4155Z" fill="#9CA3AF"/>
<path d="M131.641 15.4155C131.641 15.0382 131.946 14.7324 132.321 14.7324C132.696 14.7324 133 15.0382 133 15.4155C133 15.7927 132.696 16.0985 132.321 16.0985C131.946 16.0985 131.641 15.7927 131.641 15.4155Z" fill="#9CA3AF"/>
<path d="M148.924 16.548C148.292 16.548 147.728 16.376 147.232 16.032C146.744 15.68 146.364 15.188 146.092 14.556C145.82 13.916 145.684 13.164 145.684 12.3C145.684 11.436 145.82 10.688 146.092 10.056C146.364 9.416 146.744 8.924 147.232 8.58C147.728 8.228 148.292 8.052 148.924 8.052C149.572 8.052 150.136 8.228 150.616 8.58C151.104 8.924 151.484 9.416 151.756 10.056C152.028 10.688 152.164 11.436 152.164 12.3C152.164 13.164 152.028 13.916 151.756 14.556C151.484 15.188 151.104 15.68 150.616 16.032C150.136 16.376 149.572 16.548 148.924 16.548ZM148.924 16.176C149.492 16.176 149.988 16.02 150.412 15.708C150.836 15.396 151.168 14.952 151.408 14.376C151.648 13.792 151.768 13.1 151.768 12.3C151.768 11.492 151.648 10.8 151.408 10.224C151.168 9.648 150.836 9.204 150.412 8.892C149.988 8.58 149.492 8.424 148.924 8.424C148.364 8.424 147.868 8.58 147.436 8.892C147.012 9.204 146.68 9.648 146.44 10.224C146.208 10.8 146.092 11.492 146.092 12.3C146.092 13.1 146.208 13.792 146.44 14.376C146.68 14.952 147.012 15.396 147.436 15.708C147.868 16.02 148.364 16.176 148.924 16.176ZM154.003 11.016C153.899 11.016 153.807 10.98 153.727 10.908C153.647 10.828 153.607 10.732 153.607 10.62C153.607 10.508 153.647 10.416 153.727 10.344C153.807 10.264 153.899 10.224 154.003 10.224C154.115 10.224 154.207 10.264 154.279 10.344C154.359 10.416 154.399 10.508 154.399 10.62C154.399 10.732 154.359 10.828 154.279 10.908C154.207 10.98 154.115 11.016 154.003 11.016ZM154.003 16.536C153.899 16.536 153.807 16.5 153.727 16.428C153.647 16.348 153.607 16.252 153.607 16.14C153.607 16.028 153.647 15.936 153.727 15.864C153.807 15.784 153.899 15.744 154.003 15.744C154.115 15.744 154.207 15.784 154.279 15.864C154.359 15.936 154.399 16.028 154.399 16.14C154.399 16.252 154.359 16.348 154.279 16.428C154.207 16.5 154.115 16.536 154.003 16.536ZM157.38 16.5V8.292L157.56 8.472H155.268V8.1H157.776V16.5H157.38ZM159.849 14.076V13.788L164.493 8.1H164.961L160.317 13.788L160.077 13.716H166.893V14.076H159.849ZM164.673 16.5V14.076V13.716V11.58H165.069V16.5H164.673Z" fill="white"/>
<defs>
<linearGradient id="paint0_linear_3046_5568" x1="12" y1="0.923096" x2="12" y2="23.0769" gradientUnits="userSpaceOnUse">
<stop stop-color="white"/>
<stop offset="1" stop-color="white" stop-opacity="0.2"/>
</linearGradient>
</defs>
</svg>
