<svg width="310" height="82" viewBox="0 0 310 82" fill="none" xmlns="http://www.w3.org/2000/svg">
<g clip-path="url(#clip0_2077_114859)">
<path d="M97.5 12.5037L117.051 12.6481H117.055C124.372 12.6481 131.025 8.94625 137.02 5.29645L137.02 5.29605C141.998 2.25471 147.831 0.5 154.078 0.5C160.325 0.5 166.157 2.25471 171.135 5.29605L171.136 5.29664C177.14 8.94618 183.783 12.6481 191.111 12.6481H212.5V81.5H97.5V12.5037Z" fill="black" stroke="#8B5CF6"/>
</g>
<mask id="path-2-inside-1_2077_114859" fill="white">
<path d="M212 12H270V82H212V12Z"/>
</mask>
<path d="M212 12H270V82H212V12Z" fill="black"/>
<path d="M212 13H270V11H212V13ZM270 81H212V83H270V81Z" fill="#8B5CF6" mask="url(#path-2-inside-1_2077_114859)"/>
<mask id="path-4-inside-2_2077_114859" fill="white">
<path d="M270 12H286C299.255 12 310 22.7452 310 36V58C310 71.2548 299.255 82 286 82H270V12Z"/>
</mask>
<path d="M270 12H286C299.255 12 310 22.7452 310 36V58C310 71.2548 299.255 82 286 82H270V12Z" fill="black"/>
<path d="M270 11H286C299.807 11 311 22.1929 311 36H309C309 23.2975 298.703 13 286 13H270V11ZM311 58C311 71.8071 299.807 83 286 83H270V81H286C298.703 81 309 70.7025 309 58H311ZM270 82V12V82ZM286 11C299.807 11 311 22.1929 311 36V58C311 71.8071 299.807 83 286 83V81C298.703 81 309 70.7025 309 58V36C309 23.2975 298.703 13 286 13V11Z" fill="#8B5CF6" mask="url(#path-4-inside-2_2077_114859)"/>
<mask id="path-6-inside-3_2077_114859" fill="white">
<path d="M0 36C0 22.7452 10.7452 12 24 12H40V82H24C10.7452 82 0 71.2548 0 58V36Z"/>
</mask>
<path d="M0 36C0 22.7452 10.7452 12 24 12H40V82H24C10.7452 82 0 71.2548 0 58V36Z" fill="black"/>
<path d="M-1 36C-1 22.1929 10.1929 11 24 11H40V13H24C11.2975 13 1 23.2975 1 36H-1ZM40 83H24C10.1929 83 -1 71.8071 -1 58H1C1 70.7025 11.2975 81 24 81H40V83ZM24 83C10.1929 83 -1 71.8071 -1 58V36C-1 22.1929 10.1929 11 24 11V13C11.2975 13 1 23.2975 1 36V58C1 70.7025 11.2975 81 24 81V83ZM40 12V82V12Z" fill="#8B5CF6" mask="url(#path-6-inside-3_2077_114859)"/>
<mask id="path-8-inside-4_2077_114859" fill="white">
<path d="M40 12H98V82H40V12Z"/>
</mask>
<path d="M40 12H98V82H40V12Z" fill="black"/>
<path d="M40 13H98V11H40V13ZM98 81H40V83H98V81Z" fill="#8B5CF6" mask="url(#path-8-inside-4_2077_114859)"/>
<defs>
<clipPath id="clip0_2077_114859">
<rect width="114" height="82" fill="white" transform="translate(98)"/>
</clipPath>
</defs>
</svg>
