<svg width="25" height="24" viewBox="0 0 25 24" fill="none" xmlns="http://www.w3.org/2000/svg">
<path d="M9.14195 0.596191L9.14196 0.596188C9.67383 0.419053 9.93477 0.530154 9.99125 0.580176C10.0065 0.593701 10.0162 0.606276 10.0156 0.645062C10.0149 0.696961 9.99146 0.810553 9.87103 0.981583L9.87102 0.98159C8.43626 3.01927 7.87097 4.67504 7.87281 6.91965C7.87936 14.8933 16.9493 19.2952 23.298 14.4325L22.994 14.0356L23.298 14.4325C23.5445 14.2437 23.7304 14.1613 23.8487 14.1354C23.9061 14.1228 23.9361 14.1251 23.9488 14.1279C23.9582 14.1408 23.985 14.1868 23.9958 14.3021C24.0104 14.4584 23.989 14.6944 23.8958 15.0136C21.0793 24.654 8.35599 26.5776 2.88111 18.2059C0.173575 14.0658 0.420134 8.21366 3.41788 4.59012C5.06619 2.59771 6.84274 1.36188 9.14195 0.596191ZM23.9564 14.1307C23.9563 14.1309 23.9546 14.1304 23.9519 14.1287C23.9552 14.1296 23.9566 14.1305 23.9564 14.1307Z" stroke="white"/>
</svg>
