<svg width="78" height="30" viewBox="0 0 78 30" fill="none" xmlns="http://www.w3.org/2000/svg">
<g clip-path="url(#clip0_2066_40232)">
<path fill-rule="evenodd" clip-rule="evenodd" d="M8.56338 10.8853L27.0332 25.5056H0.296875L8.56338 10.8853Z" fill="white"/>
<path fill-rule="evenodd" clip-rule="evenodd" d="M8.0791 4.59795L14.4053 0.59082C19.0898 8.85881 23.7644 17.1093 28.4288 25.3422L8.0791 4.59795Z" fill="white"/>
<path fill-rule="evenodd" clip-rule="evenodd" d="M10.0788 8.23169L27.0333 25.5053L8.56348 10.885L10.0788 8.23169Z" fill="#ACACAC"/>
<path fill-rule="evenodd" clip-rule="evenodd" d="M66.6484 9.63076V16.9726H65.0708V8.03951H65.3056C67.8969 8.03951 70.4899 8.03951 73.0812 8.03951C74.1732 8.03951 75.0714 7.59911 75.6814 6.65487C75.9229 6.27896 76.0729 5.84975 76.119 5.40289C76.165 4.95604 76.1057 4.50444 75.946 4.08562C75.7864 3.66681 75.5309 3.29286 75.2009 2.99487C74.871 2.69687 74.4759 2.48342 74.0487 2.37226C73.7218 2.28456 73.3855 2.2389 73.0474 2.23633C70.6962 2.22365 68.3433 2.23633 65.9921 2.22727C65.9317 2.21982 65.8706 2.23376 65.8192 2.26676C65.7677 2.29976 65.7289 2.34981 65.7093 2.40851C63.351 7.19797 60.9903 11.9868 58.6273 16.7751L58.5135 16.9654L50.0371 0.634205H50.2559C50.6934 0.634205 51.1327 0.666828 51.5666 0.634205C51.9223 0.597958 52.0753 0.752009 52.2282 1.05286C54.1028 4.75128 55.985 8.44789 57.875 12.1427C58.0849 12.5523 58.2929 12.9637 58.5188 13.4113C58.5722 13.3117 58.6131 13.2464 58.6451 13.1757C59.7602 10.8505 60.8824 8.52703 61.9833 6.19453C62.8228 4.4166 63.6374 2.62418 64.4555 0.835377C64.4764 0.768677 64.5194 0.711447 64.5772 0.673442C64.6349 0.635436 64.7038 0.619008 64.772 0.626956C67.6592 0.634205 70.5469 0.634205 73.4351 0.626956C74.0758 0.621701 74.7116 0.739124 75.3097 0.973117C75.8314 1.16591 76.2994 1.48479 76.6736 1.90241C77.0478 2.32004 77.317 2.82393 77.4581 3.37087C77.8127 4.49883 77.7845 5.71557 77.3781 6.82523C76.8445 8.2135 75.8788 9.13418 74.456 9.51296C74.1064 9.59644 73.7479 9.6342 73.3889 9.62532C71.2209 9.6362 69.0547 9.62532 66.8867 9.62532L66.6484 9.63076Z" fill="white"/>
<path fill-rule="evenodd" clip-rule="evenodd" d="M43.1374 3.1082V3.30394C43.1374 5.81406 43.1374 8.32236 43.1374 10.8325C43.156 11.6169 43.0741 12.4004 42.8937 13.1632C42.4135 14.99 41.2931 16.1862 39.4986 16.681C37.9477 17.1087 36.3702 17.1649 34.8353 16.681C33.0213 16.101 31.931 14.8016 31.57 12.8859C31.4397 12.1322 31.3801 11.3675 31.3921 10.6023C31.3921 7.37148 31.3921 4.14065 31.3921 0.909811V0.648831H32.9679V0.891688C32.9679 4.40646 32.9709 7.91942 32.9768 11.4306C32.9487 12.3382 33.2247 13.2286 33.7593 13.9552C34.2336 14.5825 34.9047 15.0252 35.6606 15.2093C36.8339 15.5319 38.0765 15.4762 39.2176 15.0498C40.5746 14.5406 41.3055 13.4948 41.4994 12.0522C41.5417 11.6975 41.5602 11.3402 41.5545 10.9829C41.5545 7.62642 41.5545 4.26993 41.5545 0.913436V0.647019C41.6292 0.647019 41.6879 0.636145 41.7466 0.636145C42.4313 0.636145 43.1143 0.636145 43.7972 0.636145C43.8571 0.628878 43.9177 0.642955 43.9686 0.675988C44.0195 0.709021 44.0576 0.758976 44.0765 0.817381C45.9024 4.64388 47.7331 8.46856 49.5685 12.2914C50.0024 13.1976 50.4346 14.1038 50.8739 15.01C50.9026 15.0603 50.9178 15.1175 50.9178 15.1758C50.9178 15.2341 50.9026 15.2913 50.8739 15.3416C50.6267 15.8382 50.3884 16.3421 50.1465 16.8423C50.1305 16.8731 50.1109 16.9039 50.0736 16.9709L43.1801 3.10639L43.1374 3.1082Z" fill="white"/>
<path d="M32.0691 20.583H34.0255C35.5585 20.583 36.5918 21.5871 36.5918 23.0224C36.5918 24.4578 35.5585 25.4637 34.0255 25.4637H32.0691V20.583ZM33.9917 25.0106C35.2633 25.0106 36.085 24.1878 36.085 23.017C36.085 21.8462 35.2633 21.0234 33.9917 21.0234H32.5689V25.0106H33.9917Z" fill="white"/>
<path d="M40.7988 20.583H41.3057V25.4637H40.7988V20.583Z" fill="white"/>
<path d="M49.3179 23.017H49.7981V24.8838C49.305 25.3012 48.68 25.5221 48.0391 25.5054C46.5826 25.5054 45.5137 24.4524 45.5137 23.0225C45.5137 21.5925 46.5808 20.5396 48.0463 20.5396C48.7719 20.5396 49.4015 20.777 49.8248 21.2446L49.5153 21.5672C49.3256 21.3765 49.0996 21.2274 48.8513 21.1289C48.6029 21.0304 48.3375 20.9847 48.0712 20.9945C46.8885 20.9945 46.0188 21.8535 46.0188 23.017C46.0188 24.1806 46.8885 25.0396 48.0641 25.0396C48.5109 25.0546 48.9506 24.9224 49.3179 24.6627V23.017Z" fill="white"/>
<path d="M54.3125 20.583H54.8176V25.4637H54.3125V20.583Z" fill="white"/>
<path d="M60.3864 21.0232H58.7021V20.5774H62.5757V21.0232H60.8915V25.4635H60.3864V21.0232Z" fill="white"/>
<path d="M69.2258 24.1588H66.558L65.9818 25.4637H65.4482L67.6376 20.583H68.1373L70.3267 25.4637H69.7931L69.2258 24.1588ZM69.0479 23.7401L67.899 21.1195L66.7412 23.742L69.0479 23.7401Z" fill="white"/>
<path d="M74.2063 20.583H74.7132V25.0106H77.3952V25.4583H74.2063V20.583Z" fill="white"/>
<path d="M0.296875 27.0352H1.53116V27.2889H0.592107V28.0646H1.45824V28.3129H0.592107V29.3695H0.296875V27.0352Z" fill="#F8F8F8"/>
<path d="M2.63535 28.3198V28.5446H1.7959V28.3198H2.63535Z" fill="#F8F8F8"/>
<path d="M2.94384 29.0576C3.06235 29.1335 3.19874 29.1754 3.33867 29.179C3.55564 29.179 3.6588 29.0684 3.6588 28.9289C3.6588 28.7893 3.57343 28.7042 3.35289 28.6208C3.05588 28.5139 2.91716 28.3471 2.91716 28.146C2.91716 27.8759 3.13236 27.6548 3.4845 27.6548C3.62607 27.6538 3.76558 27.6893 3.89 27.7581L3.81531 27.981C3.71367 27.9173 3.59673 27.8834 3.47739 27.8832C3.29954 27.8832 3.2035 27.9883 3.2035 28.1115C3.2035 28.2348 3.30132 28.3127 3.51474 28.3961C3.80108 28.5066 3.94692 28.6516 3.94692 28.9017C3.94692 29.1971 3.72282 29.4037 3.33155 29.4037C3.17038 29.4065 3.01119 29.3672 2.86914 29.2896L2.94384 29.0576Z" fill="#F8F8F8"/>
<path d="M4.62451 28.454C4.66541 28.396 4.72233 28.3236 4.77035 28.2728L5.2541 27.6929H5.6098L4.98021 28.3816L5.70406 29.3693H5.34658L4.77924 28.5664L4.62629 28.7386V29.3693H4.33105V26.9099H4.62451V28.454Z" fill="#F8F8F8"/>
<path d="M6.89751 29.3692L6.87261 29.1572C6.81431 29.2367 6.73822 29.3009 6.65068 29.3444C6.56314 29.3879 6.46667 29.4094 6.36929 29.4073C6.3047 29.412 6.23985 29.4031 6.1788 29.3811C6.11775 29.3591 6.06184 29.3244 6.01457 29.2793C5.9673 29.2342 5.92969 29.1796 5.90412 29.119C5.87855 29.0584 5.86556 28.993 5.86598 28.927C5.86598 28.521 6.22168 28.2999 6.85483 28.3017V28.2727C6.8613 28.2209 6.85616 28.1682 6.83979 28.1186C6.82342 28.0691 6.79625 28.0239 6.7603 27.9866C6.72436 27.9493 6.68059 27.9207 6.63228 27.9031C6.58396 27.8855 6.53236 27.8793 6.48134 27.8849C6.32989 27.8855 6.18155 27.9288 6.05272 28.01L5.98514 27.8088C6.14636 27.7106 6.33087 27.6592 6.51869 27.6602C7.02201 27.6602 7.14294 28.01 7.14294 28.3452V28.9723C7.14068 29.107 7.1502 29.2417 7.1714 29.3747L6.89751 29.3692ZM6.85305 28.5138C6.5258 28.5138 6.15587 28.5664 6.15587 28.8908C6.15324 28.9293 6.15874 28.968 6.17202 29.0041C6.1853 29.0403 6.20604 29.0732 6.23285 29.1005C6.25965 29.1278 6.29189 29.1489 6.3274 29.1625C6.3629 29.176 6.40084 29.1816 6.43866 29.1789C6.52546 29.1811 6.61069 29.155 6.68199 29.1045C6.75329 29.054 6.80697 28.9817 6.83526 28.898C6.84633 28.8666 6.85233 28.8335 6.85305 28.8001V28.5102V28.5138Z" fill="#F8F8F8"/>
<path d="M7.96983 27.2107V27.6928H8.39845V27.9248H7.96983V28.8309C7.96983 29.0394 8.02852 29.1572 8.19392 29.1572C8.25391 29.1584 8.31377 29.1511 8.37177 29.1354L8.386 29.3638C8.30106 29.3947 8.21113 29.4088 8.121 29.4055C8.06114 29.409 8.00122 29.3994 7.94535 29.3772C7.88948 29.355 7.83898 29.3207 7.79731 29.2768C7.70627 29.1519 7.66497 28.9965 7.68171 28.8418V27.9356H7.42383V27.6928H7.67815V27.2904L7.96983 27.2107Z" fill="#F8F8F8"/>
<path d="M9.09563 27.2107V27.6928H9.52425V27.9248H9.09563V28.8309C9.09563 29.0394 9.15432 29.1572 9.31972 29.1572C9.37972 29.1586 9.43961 29.1513 9.49757 29.1354L9.5118 29.3638C9.42686 29.3947 9.33693 29.4088 9.24681 29.4055C9.18696 29.4088 9.12711 29.3991 9.07128 29.3769C9.01545 29.3547 8.96493 29.3205 8.92312 29.2768C8.8335 29.1512 8.79292 28.9962 8.80929 28.8418V27.9356H8.54785V27.6928H8.80396V27.2904L9.09563 27.2107Z" fill="#F8F8F8"/>
<path d="M10.6583 29.1555C10.7385 29.1602 10.8189 29.1565 10.8984 29.1446C11.071 29.1231 11.2327 29.0471 11.3608 28.9271C11.5236 28.7677 11.6273 28.5557 11.6542 28.3272H11.6436C11.5807 28.4056 11.5011 28.4683 11.4107 28.5104C11.3204 28.5525 11.2218 28.5729 11.1225 28.5701C11.0343 28.572 10.9466 28.5553 10.8651 28.521C10.7835 28.4868 10.7098 28.4357 10.6485 28.371C10.5872 28.3064 10.5397 28.2295 10.5089 28.1452C10.4782 28.061 10.4648 27.9711 10.4697 27.8814C10.4662 27.7778 10.4831 27.6745 10.5194 27.5777C10.5557 27.4809 10.6108 27.3925 10.6813 27.3178C10.7518 27.2431 10.8363 27.1836 10.9298 27.1428C11.0233 27.102 11.1239 27.0807 11.2256 27.0803C11.6774 27.0803 11.9566 27.4555 11.9566 28.03C11.9667 28.2232 11.9382 28.4165 11.8727 28.5981C11.8073 28.7798 11.7063 28.9459 11.576 29.0866C11.3988 29.255 11.173 29.3605 10.9322 29.3875C10.8417 29.4032 10.7499 29.4093 10.6583 29.4056V29.1555ZM10.7668 27.8596C10.7605 27.9202 10.7669 27.9814 10.7854 28.0393C10.8039 28.0972 10.8343 28.1505 10.8744 28.1957C10.9145 28.2408 10.9635 28.2768 11.0182 28.3014C11.0729 28.3259 11.1321 28.3384 11.1918 28.3381C11.2782 28.3406 11.3638 28.3202 11.4402 28.2789C11.5166 28.2376 11.5811 28.1768 11.6276 28.1025C11.6462 28.0688 11.6554 28.0306 11.6542 27.9919C11.6542 27.6059 11.5155 27.3123 11.2025 27.3123C10.9464 27.3123 10.7668 27.5479 10.7668 27.8596Z" fill="#F8F8F8"/>
<path d="M12.2295 29.3694V29.1881L12.4625 28.9562C13.028 28.4124 13.2824 28.1188 13.2859 27.7781C13.292 27.7182 13.2847 27.6577 13.2647 27.601C13.2446 27.5444 13.2122 27.4931 13.17 27.4509C13.1278 27.4088 13.0768 27.3769 13.0208 27.3576C12.9648 27.3383 12.9053 27.3321 12.8466 27.3395C12.6734 27.3463 12.5076 27.4135 12.3771 27.5298L12.2828 27.3142C12.4588 27.1656 12.6804 27.0848 12.9089 27.0858C12.9967 27.0777 13.0853 27.0889 13.1686 27.1184C13.2519 27.148 13.328 27.1953 13.392 27.2572C13.4559 27.3191 13.5062 27.3942 13.5394 27.4775C13.5727 27.5607 13.5881 27.6502 13.5847 27.7401C13.5847 28.1569 13.2895 28.4922 12.8235 28.9489L12.6457 29.1156H13.6363V29.3694H12.2295Z" fill="#F8F8F8"/>
<path d="M15.4393 28.2203C15.4393 28.9851 15.1618 29.4074 14.6727 29.4074C14.2406 29.4074 13.9489 28.996 13.9418 28.2511C13.9347 27.5062 14.2619 27.0803 14.7101 27.0803C15.1583 27.0803 15.4393 27.5026 15.4393 28.2203ZM14.2406 28.2547C14.2406 28.8401 14.4184 29.1718 14.6887 29.1718C14.9946 29.1718 15.1405 28.8093 15.1405 28.233C15.1405 27.6567 15.0018 27.3159 14.6923 27.3159C14.4309 27.3159 14.2406 27.6422 14.2406 28.2547Z" fill="#F8F8F8"/>
<path d="M16.3617 27.4027L15.9776 27.6129L15.9207 27.381L16.4026 27.1182H16.6587V29.3691H16.3617V27.4027Z" fill="#F8F8F8"/>
<path d="M18.7199 27.3341C18.6444 27.3308 18.5687 27.335 18.494 27.3468C18.2971 27.375 18.1149 27.469 17.9759 27.6139C17.8369 27.7588 17.7489 27.9466 17.7257 28.1478H17.7364C17.8255 28.0336 17.948 27.9513 18.0861 27.9128C18.2243 27.8743 18.3708 27.8816 18.5046 27.9337C18.6384 27.9858 18.7524 28.08 18.8301 28.2026C18.9078 28.3251 18.9452 28.4697 18.9369 28.6154C18.9422 28.7172 18.9271 28.819 18.8926 28.9147C18.8581 29.0103 18.8049 29.0978 18.7362 29.1719C18.6675 29.246 18.5848 29.3051 18.493 29.3455C18.4012 29.386 18.3023 29.4071 18.2023 29.4074C17.7293 29.4074 17.4198 29.0341 17.4198 28.4487C17.4134 28.2626 17.4433 28.0771 17.5077 27.9029C17.5721 27.7287 17.6698 27.5693 17.7951 27.4338C17.9891 27.2453 18.2396 27.1285 18.5065 27.1021C18.5788 27.0902 18.6519 27.0841 18.7252 27.084V27.3341H18.7199ZM18.6345 28.6317C18.6345 28.3091 18.4567 28.1152 18.1792 28.1152C18.0897 28.117 18.0024 28.1439 17.9268 28.1927C17.8513 28.2416 17.7903 28.3107 17.7506 28.3925C17.7269 28.4336 17.7152 28.4808 17.7168 28.5284C17.7168 28.8909 17.8947 29.1718 18.2023 29.1718C18.4602 29.1791 18.6345 28.9543 18.6345 28.6354V28.6317Z" fill="#F8F8F8"/>
<path d="M19.2742 29.0197C19.4226 29.1089 19.591 29.1575 19.7633 29.1611C20.1474 29.1611 20.2666 28.9128 20.263 28.7261C20.263 28.4108 19.9803 28.2748 19.6921 28.2748H19.525V28.0465H19.6921C19.9091 28.0465 20.1848 27.9323 20.1848 27.6659C20.1848 27.4846 20.0727 27.327 19.7971 27.327C19.639 27.3316 19.4857 27.3833 19.356 27.4756L19.276 27.2545C19.4472 27.138 19.6481 27.075 19.854 27.0732C20.2897 27.0732 20.4871 27.336 20.4871 27.617C20.4847 27.7384 20.4437 27.8559 20.3703 27.9516C20.2969 28.0473 20.195 28.1162 20.0799 28.148C20.2164 28.168 20.3413 28.2374 20.4318 28.3436C20.5223 28.4497 20.5722 28.5855 20.5725 28.7261C20.5725 29.0886 20.2968 29.4021 19.7668 29.4021C19.5654 29.4048 19.367 29.3523 19.1924 29.2499L19.2742 29.0197Z" fill="#F8F8F8"/>
<path d="M21.733 28.3198V28.5446H20.8936V28.3198H21.733Z" fill="#F8F8F8"/>
<path d="M23.2498 27.3341C23.1749 27.3308 23.0999 27.3351 23.0257 27.3468C22.8288 27.375 22.6466 27.469 22.5076 27.6139C22.3686 27.7588 22.2806 27.9466 22.2574 28.1478H22.2681C22.3572 28.0336 22.4797 27.9513 22.6179 27.9128C22.756 27.8743 22.9026 27.8816 23.0363 27.9337C23.1701 27.9858 23.2841 28.08 23.3618 28.2026C23.4396 28.3251 23.4769 28.4697 23.4686 28.6154C23.4739 28.7172 23.4588 28.819 23.4244 28.9147C23.3899 29.0103 23.3367 29.0978 23.268 29.1719C23.1993 29.246 23.1165 29.3051 23.0248 29.3455C22.933 29.386 22.8341 29.4071 22.7341 29.4074C22.261 29.4074 21.9533 29.0341 21.9533 28.4487C21.9467 28.2628 21.9763 28.0773 22.0404 27.9031C22.1045 27.7289 22.2018 27.5694 22.3268 27.4338C22.5209 27.2453 22.7713 27.1285 23.0382 27.1021C23.1099 27.0903 23.1825 27.0842 23.2552 27.084V27.3341H23.2498ZM23.1662 28.6317C23.1662 28.3091 22.9884 28.1152 22.7109 28.1152C22.6215 28.1172 22.5343 28.1441 22.4587 28.193C22.3832 28.2419 22.3222 28.3109 22.2823 28.3925C22.2587 28.4336 22.2469 28.4808 22.2485 28.5284C22.2485 28.8909 22.4264 29.1718 22.7341 29.1718C22.992 29.1791 23.1662 28.9543 23.1662 28.6354V28.6317Z" fill="#F8F8F8"/>
<path d="M24.3815 27.4029L23.9973 27.6132L23.9404 27.3812L24.4224 27.1184H24.6767V29.3694H24.3886V27.4029H24.3815Z" fill="#F8F8F8"/>
<path d="M25.5468 29.0195C25.6955 29.1081 25.8638 29.1567 26.0359 29.1608C26.4201 29.1608 26.5392 28.9125 26.5357 28.7259C26.5357 28.4105 26.2529 28.2746 25.9648 28.2746H25.7976V28.0462H25.9666C26.1835 28.0462 26.4592 27.9321 26.4592 27.6656C26.4592 27.4844 26.3472 27.3267 26.0733 27.3267C25.9146 27.3311 25.7606 27.3828 25.6304 27.4753L25.5522 27.2542C25.7231 27.1371 25.9242 27.0741 26.1302 27.073C26.5641 27.073 26.7616 27.3358 26.7616 27.6167C26.7594 27.7383 26.7186 27.8558 26.6451 27.9516C26.5716 28.0474 26.4695 28.1163 26.3543 28.1477C26.4908 28.1677 26.6158 28.2372 26.7062 28.3433C26.7967 28.4495 26.8466 28.5853 26.8469 28.7259C26.8469 29.0883 26.5712 29.4019 26.0413 29.4019C25.8399 29.4043 25.6415 29.3518 25.4668 29.2496L25.5468 29.0195Z" fill="#F8F8F8"/>
<path d="M27.2119 29.3691V29.1879L27.4467 28.9559C28.0105 28.4122 28.2666 28.1186 28.2701 27.7779C28.2758 27.718 28.2683 27.6576 28.2482 27.6012C28.228 27.5447 28.1956 27.4935 28.1535 27.4514C28.1113 27.4094 28.0605 27.3775 28.0046 27.358C27.9488 27.3386 27.8894 27.3322 27.8308 27.3393C27.6575 27.3458 27.4917 27.413 27.3613 27.5296L27.267 27.3139C27.4425 27.1656 27.6634 27.0848 27.8913 27.0855C27.9792 27.0775 28.0678 27.0886 28.1512 27.1182C28.2346 27.1477 28.3109 27.195 28.375 27.2569C28.4391 27.3188 28.4895 27.3938 28.5229 27.4771C28.5564 27.5603 28.572 27.6499 28.5689 27.7398C28.5689 28.1566 28.2719 28.4919 27.8059 28.9486L27.6281 29.1154H28.6347V29.3691H27.2119Z" fill="#F8F8F8"/>
</g>
<defs>
<clipPath id="clip0_2066_40232">
<rect width="78" height="30" fill="white"/>
</clipPath>
</defs>
</svg>
