<svg width="302" height="81" viewBox="0 0 302 81" fill="none" xmlns="http://www.w3.org/2000/svg">
<g clip-path="url(#clip0_2077_114866)">
<path d="M209 10.8148H187.111C179.94 10.8148 173.408 7.5884 167.396 4.33494C162.342 1.58617 156.42 0 150.078 0C143.736 0 137.813 1.58617 132.76 4.33494C126.757 7.5884 120.216 10.8148 113.055 10.8148H93V73H209V10.8148Z" fill="#171717"/>
</g>
<path d="M208 11H262V73H208V11Z" fill="#171717"/>
<path d="M262 11H282C293.046 11 302 19.9543 302 31V53C302 64.0457 293.046 73 282 73H262V11Z" fill="#171717"/>
<path d="M0 31C0 19.9543 8.95431 11 20 11H40V73H20C8.95431 73 0 64.0457 0 53V31Z" fill="#171717"/>
<path d="M40 11H94V73H40V11Z" fill="#171717"/>
<defs>
<clipPath id="clip0_2077_114866">
<rect width="114" height="81" fill="white" transform="translate(94)"/>
</clipPath>
</defs>
</svg>
